<svg width="21" height="19" viewBox="0 0 21 19" fill="none" xmlns="http://www.w3.org/2000/svg">
<path fill-rule="evenodd" clip-rule="evenodd" d="M18.9299 1.1751C18.1721 0.589573 17.4022 0.0975543 17.2185 0.0821611C16.742 0.0417108 2.27735 7.13286 0.901484 8.08114L0.429347 8.40665L1.25511 9.01987C2.45372 9.90979 3.60216 10.2405 4.61428 9.98757C6.36684 9.54963 6.75717 9.6595 8.82849 11.1747C10.5662 12.4462 10.894 13.1785 10.4628 14.8293L10.1351 16.0848L11.2493 17.2418C11.8853 17.9019 12.4718 18.3253 12.6152 18.2278C13.0594 17.9258 18.5627 7.89621 19.6281 5.44727C20.2209 4.08497 20.5836 2.90159 20.4827 2.66C20.3862 2.42882 19.6874 1.76073 18.9299 1.1751ZM14.2895 7.74443C13.4326 9.06674 12.68 10.1703 12.6168 10.1967C12.5536 10.2231 11.9444 9.7461 11.2629 9.13706C9.55726 7.61232 9.65932 7.42888 13.0679 5.88873C15.2122 4.91967 15.6178 4.79048 15.7232 5.04269C15.7914 5.20624 15.1463 6.42212 14.2895 7.74443Z" fill="#272727" fill-opacity="0.38"/>
</svg>
