<svg width="43" height="40" viewBox="0 0 43 40" fill="none" xmlns="http://www.w3.org/2000/svg">
<path fill-rule="evenodd" clip-rule="evenodd" d="M15.8406 0.993533C14.4142 1.69605 13.4646 2.00479 12.5974 2.0479C11.5497 2.10012 11.0865 2.30443 9.41938 3.44982C8.34612 4.18707 7.33995 4.79832 7.18379 4.80814C5.77696 4.89629 5.17789 5.22108 3.40312 6.85796C1.93995 8.20719 1.05316 8.70108 0.485603 8.4824C0.304378 8.41269 0.101424 8.49868 0.0345685 8.67329C-0.162416 9.1885 0.472709 13.4307 2.19089 23.075L3.80569 32.138L9.53089 34.6419C16.4065 37.6489 22.1491 40 22.6178 40C23.4874 40 37.7164 32.4467 41.042 30.2201C42.1143 29.502 42.7931 28.8659 42.9387 28.4422C43.1682 27.7756 42.7317 19.6764 41.9872 10.7784C41.5341 5.36311 41.5467 5.41581 40.7339 5.61748C38.8403 6.08695 38.8104 6.08168 37.7319 5.08455C36.4354 3.88551 35.9402 3.61796 35.0577 3.63928C34.2752 3.6582 33.3624 3.27473 31.2539 2.04144C30.125 1.38108 29.561 1.20263 28.5944 1.20048C27.9197 1.1988 26.4407 0.928144 25.3078 0.598802C24.1748 0.269461 22.9932 0 22.682 0C22.0281 0 21.9903 0.200718 21.5797 5.86826C21.3363 9.22659 21.1706 10.4438 20.9825 10.2551C20.9271 10.1995 20.5002 8.38156 20.0334 6.21485C19.0425 1.61317 18.5535 0 18.1495 0C17.9888 0 16.9499 0.446946 15.8406 0.993533ZM25.8816 1.76168C27.1709 2.27904 27.1943 2.30563 27.1637 3.22347C27.1289 4.27257 22.9686 12.9341 22.4996 12.9341C22.3079 12.9341 22.2797 12.04 22.3996 9.76048C22.588 6.17916 22.9683 2.01629 23.1675 1.35689C23.3208 0.849102 23.7763 0.916886 25.8816 1.76168ZM18.2851 2.94395C18.6913 4.28527 19.9699 10.4146 20.2375 12.303C20.3681 13.2252 20.3669 13.2271 19.8765 12.782C19.022 12.0065 13.6602 3.81437 13.7881 3.47976C13.9682 3.0091 16.8501 1.42443 17.3964 1.49581C17.7419 1.54084 17.9757 1.92168 18.2851 2.94395ZM30.9838 3.03473C31.7889 3.51808 32.7397 4.11593 33.0967 4.36287L33.7457 4.81198L30.709 7.59473C27.0085 10.9859 24.9814 12.6946 24.6593 12.6946C24.517 12.6946 24.4864 12.4719 24.5853 12.1557C25.1213 10.4422 29.0894 2.15569 29.3743 2.15569C29.4545 2.15569 30.1787 2.55114 30.9838 3.03473ZM14.8655 7.15976C17.4886 11.0752 18.5907 12.9025 18.4284 13.0654C18.1939 13.3006 8.45142 6.16096 8.45142 5.75401C8.45142 5.42515 10.38 3.80144 11.1626 3.47138C11.6956 3.24647 12.0019 3.22802 12.2175 3.40766C12.3849 3.54683 13.5764 5.23521 14.8655 7.15976ZM36.8496 5.61293C37.315 6.09437 37.5884 6.58156 37.5096 6.78778C37.3133 7.30108 35.795 8.29222 31.4912 10.7169C25.1163 14.308 25.117 14.3078 27.9617 11.5334C31.0972 8.47545 35.3521 4.79042 35.7475 4.79042C35.9165 4.79042 36.4125 5.16048 36.8496 5.61293ZM10.2627 8.66012C14.375 11.4695 18.5635 14.6067 18.4088 14.7619C18.1187 15.0529 2.95973 9.4024 2.95973 9.00335C2.95973 8.68287 4.74787 6.90108 5.4668 6.50515C5.72945 6.36048 6.11482 6.2388 6.32303 6.23473C6.53123 6.2309 8.30409 7.32215 10.2627 8.66012Z" fill="#272727" fill-opacity="0.38"/>
</svg>
