<svg width="37" height="39" viewBox="0 0 37 39" fill="none" xmlns="http://www.w3.org/2000/svg">
<path fill-rule="evenodd" clip-rule="evenodd" d="M19.2002 1.54342C18.9915 1.6779 18.7605 1.59797 17.726 1.03371L16.4991 0.364355L9.79675 6.50795C6.11039 9.88689 2.43535 13.2556 1.63024 13.9941L0.166282 15.3366L0.574047 15.8449C0.798294 16.1247 2.34598 17.9165 4.0133 19.827C8.42294 24.8796 8.52908 25.0252 8.94936 26.598C9.36594 28.1572 9.66701 28.5018 10.7524 28.661C11.4487 28.7632 11.525 28.8052 12.295 29.5107C12.7407 29.9189 14.4718 31.7441 16.1421 33.5665C19.1962 36.8992 20.4807 38.2107 20.6416 38.161C20.8964 38.0823 36.4615 24.0463 36.6242 23.7486C36.6644 23.675 36.5499 23.0176 36.3697 22.2876C36.1896 21.5575 36.0546 20.7556 36.0699 20.5056C36.0852 20.2555 35.9759 19.8436 35.827 19.5901C35.389 18.8441 33.1796 16.8647 31.2771 15.5139C29.7216 14.4093 29.309 14.1757 27.8364 13.566L26.1632 12.8731L25.5098 10.9154C24.5181 7.94293 22.7923 4.80952 21.006 2.73775C20.0667 1.64812 19.5587 1.31225 19.2002 1.54342ZM21.418 4.84457C23.2256 7.47933 24.745 10.6937 24.8438 12.0925C24.8881 12.7182 24.8804 12.7353 24.1819 13.5662C23.7931 14.0286 22.8357 15.0271 22.0545 15.7851C20.6667 17.1316 11.7986 25.3041 11.6842 25.342C11.6526 25.3525 11.2756 24.7358 10.8466 23.9715C10.4176 23.2073 9.23511 21.3297 8.21887 19.7989C6.15584 16.6915 5.56122 15.6409 5.71083 15.3671C5.96879 14.895 17.4428 4.38224 18.884 3.29746C19.8838 2.54484 19.8087 2.49889 21.418 4.84457ZM13.8797 4.46342C10.3868 7.62852 3.34011 14.1427 2.82072 14.6867L2.43719 15.0885L3.28668 16.2926C3.75396 16.9549 4.94928 18.5126 5.94286 19.7541C7.95736 22.2709 9.04039 23.7084 8.99067 23.7994C8.93077 23.909 7.44703 22.3632 5.27339 19.9267C2.23399 16.5195 1.66425 15.8249 1.70079 15.571C1.76375 15.1337 5.02412 11.9894 11.6907 5.93667C15.5511 2.43169 16.7816 1.40123 16.735 1.71238C16.7195 1.81651 15.4346 3.05445 13.8797 4.46342ZM18.1159 2.58848C18.0599 2.69094 15.5628 5.02737 12.5668 7.78045C7.26392 12.6535 4.37092 15.4135 4.15842 15.8024C4.10094 15.9076 3.99667 15.9294 3.92662 15.8507C3.64532 15.5352 4.61948 14.2411 6.47228 12.4685C10.0752 9.0218 16.3058 3.4411 17.4634 2.62419C17.9745 2.26341 18.3033 2.24542 18.1159 2.58848ZM33.0797 18.0342C34.4284 19.0858 34.9319 19.7365 34.7555 20.2004C34.6408 20.5023 29.9936 24.8519 23.6155 30.6273L20.9373 33.0524L20.4552 32.7357C20.1902 32.5617 19.0865 31.6347 18.003 30.6757C16.9193 29.7167 15.3745 28.4165 14.5701 27.7862C12.662 26.2913 12.5949 26.2249 12.7351 25.9683C13.1778 25.1581 25.6765 14.0677 26.223 14.0001C26.5649 13.9579 31.8068 17.0419 33.0797 18.0342ZM31.4161 25.6257C24.382 32.1069 21.0798 34.9055 20.7071 34.7019C20.4323 34.5517 20.4843 34.49 21.864 33.3304C22.5387 32.7634 24.9075 30.6451 27.1279 28.6232C33.8998 22.4566 35.1365 21.4191 35.2458 21.8126C35.2928 21.9817 34.3216 22.9487 31.4161 25.6257ZM35.2691 23.6788C34.6726 24.4158 21.7935 36.1805 21.0009 36.7125C20.6453 36.9511 20.4739 36.8576 19.4233 35.8525C17.6655 34.1706 12.4364 27.9624 13.5361 28.8629C13.7234 29.0163 15.1209 30.3831 16.6417 31.9004C18.1624 33.4176 19.6855 34.8929 20.0264 35.1788C20.3673 35.4646 20.754 35.7914 20.8857 35.9049C21.0813 36.0734 21.2205 36.0314 21.6431 35.6771C22.5423 34.9228 25.7571 32.0085 30.1076 28.0038C34.2699 24.1722 35.442 23.1415 35.5619 23.207C35.5959 23.2256 35.4641 23.4379 35.2691 23.6788ZM10.4155 25.5328C10.7731 26.1076 11.3897 26.8515 11.8071 27.2118C12.2193 27.5675 12.5684 27.9013 12.5828 27.9533C12.6097 28.05 11.3239 27.8071 10.5418 27.5676C10.15 27.4477 10.0807 27.3285 9.85449 26.3859C9.53459 25.0522 9.45213 24.3253 9.63207 24.4236C9.70964 24.466 10.0621 24.9651 10.4155 25.5328Z" fill="#272727" fill-opacity="0.38"/>
</svg>
