<svg width="35" height="39" viewBox="0 0 35 39" fill="none" xmlns="http://www.w3.org/2000/svg">
<path fill-rule="evenodd" clip-rule="evenodd" d="M15.9221 1.30517C13.2364 2.85366 7.7336 6.4389 4.3802 8.82489C-0.877144 12.5657 -1.19903 14.2899 2.3309 19.8035C5.01719 23.9989 14.8467 37.1941 16.1954 38.4149L16.8419 39L19.4493 37.4093C21.8956 35.9167 28.1466 31.8656 32.9002 28.6922L35 27.2904L34.982 25.0674C34.9648 22.9566 34.9262 22.7696 34.2162 21.3589C32.3551 17.6613 19.2184 0 18.3289 0C18.2502 0 17.1672 0.587317 15.9221 1.30517ZM18.6466 2.90794C18.8271 3.19564 18.7887 3.3173 18.459 3.5011C17.7747 3.88283 8.91739 9.54597 5.56399 11.7459C2.52697 13.7383 1.49531 14.1604 2.76313 12.8923C4.44046 11.2141 17.6512 2.30266 18.2022 2.47718C18.3215 2.51511 18.5214 2.7088 18.6466 2.90794ZM19.3014 7.01109C20.9019 8.93687 26.6295 16.6289 29.1038 20.1758C32.1533 24.5467 33.0298 25.9568 32.9467 26.357C32.8397 26.8717 17.8441 36.9217 17.1833 36.9217C16.5275 36.9217 1.79789 16.8242 2.1062 16.3499C2.68398 15.4611 17.2932 5.85744 18.0749 5.85259C18.2192 5.85179 18.7709 6.37293 19.3014 7.01109ZM16.1389 8.86565C14.4355 9.71767 11.6701 11.451 8.79496 13.4688C6.11822 15.3475 5.26269 16.0462 4.93528 16.6204C4.7318 16.9775 4.78866 16.9912 5.92556 16.8561C6.90056 16.7403 7.20653 16.7772 7.52184 17.0485C7.88659 17.3625 7.97231 17.3588 8.83103 16.9953C10.1532 16.4352 14.8694 13.3911 15.83 12.4777C16.4417 11.896 16.6459 11.5379 16.6459 11.0462C16.6459 10.5499 16.8239 10.2432 17.3783 9.78526C18.2521 9.06296 18.4418 8.4008 17.7995 8.31343C17.5589 8.28075 16.8116 8.52911 16.1389 8.86565ZM17.3669 15.5011C12.3255 18.6638 9.00693 21.1 9.0082 21.6375C9.01033 22.5747 11.7011 26.8802 13.4056 28.6742C13.8467 29.1385 14.3417 29.4567 14.6229 29.4567C15.499 29.4567 22.8572 24.7216 25.6216 22.379L26.8247 21.3593L26.4987 20.6176C26.0595 19.6181 23.2722 15.6655 22.1678 14.4761C21.6783 13.9491 21.1092 13.5178 20.903 13.5178C20.6969 13.5178 19.1055 14.4102 17.3669 15.5011ZM21.5503 16.3674C21.9947 16.825 22.8394 17.8612 23.4276 18.6701C24.7361 20.47 24.8042 21.0879 23.7876 21.9365C22.6333 22.9003 15.3155 27.6973 14.9645 27.7205C14.6246 27.7429 11.8596 24.0713 11.2173 22.745C10.8574 22.0021 10.8595 21.9747 11.3134 21.5155C12.4645 20.3503 19.8868 15.5354 20.5316 15.5354C20.6477 15.5354 21.106 15.9098 21.5503 16.3674ZM28.7046 25.9917C26.3905 27.1491 20.0907 31.3836 18.5025 32.8492C17.0681 34.1729 17.2364 34.7457 18.8314 33.9676C20.3621 33.2204 26.9121 28.9054 29.271 27.0898C31.2165 25.5924 30.8651 24.911 28.7046 25.9917Z" fill="#272727" fill-opacity="0.38"/>
</svg>
