<svg width="39" height="36" viewBox="0 0 39 36" fill="none" xmlns="http://www.w3.org/2000/svg">
<path fill-rule="evenodd" clip-rule="evenodd" d="M19.7413 0.0701027C18.4195 0.222371 16.8806 0.73892 15.4046 1.52579C14.5549 1.97884 14.479 1.99928 13.4418 2.05441C11.9998 2.13105 11.0856 2.36059 9.8425 2.95807C8.30149 3.69876 6.99858 4.79372 5.91081 6.26206C5.44373 6.89264 5.17432 7.38472 5.06902 7.79953C4.97934 8.15279 4.86306 8.28032 4.11548 8.84486C3.20249 9.53438 2.60793 10.1548 2.0319 11.019C1.48549 11.8387 0.92176 13.1462 0.737492 14.0211C0.657419 14.4015 0.553488 16.0936 0.552908 17.0264C0.552538 17.7236 0.448396 18.4829 0.271466 19.0783C0.0415931 19.852 -0.00174218 20.1942 5.24618e-05 21.2233C0.00147762 22.0457 0.0212715 22.2916 0.122933 22.7539C0.290045 23.5133 0.503291 24.1454 0.796293 24.7497C1.83423 26.8906 3.50678 28.173 5.93652 28.6909C7.00855 28.9194 7.04455 28.934 7.33528 29.2599C8.22052 30.2522 8.69224 30.6168 9.75736 31.1318C10.5521 31.5161 11.3027 31.7681 12.1914 31.9492C13.0154 32.1171 13.1305 32.1766 13.0901 32.4142C13.0543 32.6242 12.9749 33.464 12.9006 34.42C12.8359 35.2506 12.8862 35.6795 13.0715 35.8774C13.1831 35.9967 13.212 36 14.1262 36H15.0661L15.8029 34.5303C17.0002 32.142 18.2562 30.1482 19.8149 28.1615C20.7355 26.988 21.3466 26.4128 21.6709 26.4148C21.7699 26.4153 22.2546 26.4746 22.7481 26.5465C23.7759 26.6962 24.3328 26.7097 25.0444 26.602C26.0922 26.4435 27.1741 25.9739 28.0948 25.278C28.9673 24.6186 29.767 23.6624 30.5174 22.3815C30.8139 21.8753 30.9401 21.704 31.003 21.7223C31.276 21.8018 31.7755 21.8588 32.1929 21.858C32.9751 21.8564 33.7214 21.6601 34.6113 21.2218C35.9481 20.5633 36.9314 19.6594 37.4619 18.6016C37.6559 18.2149 37.8999 17.4876 37.9684 17.0922C38.0012 16.9029 38.0662 16.5215 38.1127 16.2448C38.1593 15.9681 38.2812 15.4556 38.3838 15.1061C38.4863 14.7565 38.6152 14.3156 38.6702 14.1263C38.9255 13.2476 38.9996 12.6222 39 11.3457C39.0003 10.2791 38.9855 10.0584 38.8809 9.57146C38.7143 8.79512 38.4973 8.16714 38.1397 7.42645C37.564 6.23394 36.7941 5.19989 35.6865 4.13152C33.5086 2.03069 31.1672 1.14001 28.3959 1.35827C27.612 1.41997 27.1288 1.53103 26.9627 1.68759C26.8184 1.8236 26.7457 1.80136 26.2305 1.46388C25.4197 0.932817 24.255 0.427179 23.3551 0.215592C22.4312 -0.00166219 20.8998 -0.0633111 19.7413 0.0701027ZM22.7481 0.751419C24.4308 1.06152 26.3635 2.17655 27.4368 3.4564C27.9807 4.10509 28.3713 5.10779 28.3686 5.84858C28.3673 6.21471 28.2329 6.79831 28.0755 7.12096C27.9054 7.46994 27.4996 7.91996 27.1548 8.14193C26.7327 8.41374 26.3116 8.5257 25.6943 8.53026C25.1817 8.53407 25.1402 8.52575 24.797 8.35066C24.3826 8.13923 24.1495 7.84582 24.008 7.35766C23.9222 7.06122 23.9243 6.73804 24.0202 5.51655C24.0484 5.15667 24.0397 5.07558 23.9645 5.00017C23.9155 4.95096 23.8403 4.91071 23.7975 4.91071C23.6596 4.91071 23.4813 5.16276 23.3772 5.50458C23.2386 5.96033 23.2373 7.07165 23.3751 7.53238C23.6014 8.2898 24.0379 8.82452 24.6112 9.04696C25.0269 9.20818 26.0215 9.24796 26.547 9.1244C27.4897 8.9028 28.212 8.33689 28.6218 7.4988C28.9351 6.85816 29.0226 6.479 29.0237 5.75812C29.0256 4.57752 28.6638 3.76486 27.5893 2.53654C27.2711 2.17273 27.239 2.21177 27.9737 2.06977C28.5511 1.95813 29.7052 1.94452 30.2698 2.0426C32.2168 2.38104 34.0232 3.36705 35.5666 4.93412C36.936 6.3244 37.9123 8.07181 38.276 9.78331C38.4116 10.4212 38.4105 12.2178 38.2741 13.0405C38.1809 13.6026 37.9074 14.5739 37.8285 14.6227C37.8075 14.6358 37.6151 14.3021 37.4011 13.8811C37.0886 13.2663 36.94 13.0383 36.6457 12.7221C36.2342 12.2799 35.8397 12.017 35.344 11.8547C34.6722 11.6346 34.0383 11.6572 33.4624 11.9218C33.0691 12.1025 32.7777 12.3898 32.581 12.7905C32.4324 13.0934 32.408 13.2032 32.3909 13.6454C32.3556 14.5552 32.6362 15.0151 33.3777 15.2629C34.0184 15.477 34.3341 15.4159 34.3341 15.0779C34.3341 14.8994 34.2605 14.8385 33.9948 14.7975C33.7273 14.7561 33.338 14.5136 33.1932 14.2981C32.9486 13.9339 32.9961 13.2894 33.2965 12.8985C33.3882 12.7792 33.5819 12.6193 33.7271 12.5433C33.9579 12.4223 34.0542 12.405 34.4953 12.405C34.9718 12.405 35.0218 12.4159 35.4003 12.6037C35.8885 12.8459 36.2465 13.2157 36.6431 13.8875C37.1997 14.8305 37.3847 15.5854 37.3181 16.642C37.2762 17.3058 37.1763 17.7479 36.9798 18.1386C36.3641 19.3622 34.6655 20.6968 33.252 21.0673C32.3817 21.2955 31.3157 21.1964 30.5701 20.818C29.5929 20.3221 28.6742 19.3337 28.44 18.5262C28.2899 18.0085 28.4497 17.3663 28.8394 16.9209C29.1555 16.5596 29.4563 16.5486 29.9531 16.8802C30.2489 17.0777 30.4477 17.0863 30.5651 16.9065C30.8923 16.4054 29.5964 15.7519 28.8751 16.0543C28.651 16.1482 28.3008 16.4638 28.1513 16.7066C28.088 16.8093 27.9467 17.1228 27.8373 17.4033C27.7102 17.7293 27.6133 17.9075 27.5686 17.8976C27.5301 17.889 27.2891 17.7979 27.033 17.695C26.3451 17.4188 26.0318 17.3725 25.5892 17.4816C24.6384 17.7159 23.9312 18.3106 23.6666 19.0982C23.3189 20.1334 23.9111 21.1982 24.9665 21.4355C25.2961 21.5096 25.7745 21.4254 25.9019 21.2707C26.0091 21.1407 26.0243 20.8783 25.9283 20.816C25.892 20.7924 25.6566 20.7731 25.4052 20.7731C24.9825 20.7731 24.9312 20.7612 24.723 20.6142C24.2364 20.2706 24.1029 19.6064 24.4119 19.0658C24.4991 18.9132 24.6949 18.6892 24.8469 18.5679C25.5781 17.9847 26.1946 17.9659 27.1015 18.4992C27.5476 18.7615 27.7725 18.9712 27.954 19.2941C28.2506 19.8214 29.2575 20.8644 29.871 21.2798C30.0078 21.3725 30.1314 21.4788 30.1457 21.516C30.1753 21.5936 30.0411 21.872 29.6995 22.4415C28.8715 23.822 27.7139 24.9277 26.5159 25.4823C25.1498 26.1148 23.9785 26.1858 22.0577 25.7528L21.2701 25.5752L20.6441 26.2195C18.4647 28.4627 16.2021 31.861 14.8465 34.9275L14.6534 35.3644H14.0622H13.471L13.5067 34.9275C13.6382 33.3203 13.8158 32.2135 14.2252 30.4503C14.5501 29.0511 14.5843 28.7959 14.4634 28.6745C14.4144 28.6254 14.3322 28.5852 14.2808 28.5852C14.0621 28.5852 13.9207 28.9141 13.612 30.1411C13.3427 31.2111 13.2301 31.3922 12.834 31.3922C12.5979 31.3922 11.6005 31.1318 10.9012 30.8876C8.92539 30.1975 7.6324 29.0069 7.33333 27.6022C7.20644 27.0061 7.20396 25.8562 7.32863 25.4391C7.45478 25.0171 7.88339 24.5774 8.33854 24.4031C8.69599 24.2663 9.25513 24.2378 9.60809 24.3386C10.1225 24.4854 10.6069 24.9709 11.0084 25.7421L11.2241 26.1562L11.0801 26.3746C10.877 26.6824 10.4614 27.0688 10.2117 27.1818C9.9789 27.2871 9.9296 27.2744 9.58027 27.0191C9.44937 26.9235 9.34412 26.8898 9.21079 26.9011C9.03776 26.9157 9.0232 26.9308 9.00826 27.1103C8.99549 27.2645 9.02547 27.3418 9.15574 27.4907C9.36771 27.733 9.70996 27.8967 10.0043 27.8966C10.5268 27.8965 11.2667 27.372 11.5871 26.7745C11.9099 26.1727 11.8101 25.586 11.2424 24.7484C11.0856 24.5171 10.9669 24.3121 10.9787 24.293C10.9905 24.2738 11.1969 24.2442 11.4374 24.227C11.9235 24.1923 13.2721 23.863 13.9527 23.6129C15.3629 23.0946 16.5736 22.0099 17.1296 20.7665C17.5427 19.8427 17.729 18.8817 17.6931 17.8602C17.6552 16.7808 17.4381 16.2376 16.8051 15.6385C16.2193 15.0841 15.528 14.8133 14.6909 14.8105C12.8098 14.8043 11.4513 16.3683 11.6118 18.3553C11.6578 18.9248 11.8191 19.1216 12.0821 18.9287C12.1537 18.8762 12.1906 18.74 12.2291 18.3858C12.3657 17.128 12.581 16.5641 13.1134 16.0695C13.5892 15.6275 13.8751 15.5319 14.725 15.5307C15.3777 15.5298 15.4266 15.5374 15.7279 15.6851C16.1548 15.8946 16.5884 16.3398 16.8136 16.8001L16.9947 17.17L16.9926 18.0977C16.9909 18.8753 16.9716 19.1014 16.8733 19.4955C16.4552 21.1709 15.2893 22.4163 13.5536 23.0417C12.5774 23.3934 11.8965 23.4976 10.212 23.5531C8.70354 23.6028 8.27267 23.6714 7.69474 23.954C7.15687 24.2171 6.76079 24.7989 6.61632 25.538C6.5534 25.8599 6.54458 26.7732 6.59695 27.5438L6.63532 28.1085L6.37826 28.1081C5.61807 28.107 4.19144 27.5298 3.31502 26.8688C2.60366 26.3322 1.83887 25.3924 1.40072 24.5161C1.16609 24.047 0.890617 23.195 0.781302 22.6004C0.650557 21.8893 0.65098 20.41 0.782094 19.7933C1.03609 18.5989 1.54165 17.6806 2.42952 16.8009C3.42555 15.8141 4.47008 15.5255 5.3939 15.9817C5.82024 16.1923 6.23691 16.5922 6.44535 16.9907C6.57789 17.2442 6.59531 17.333 6.59526 17.7542C6.5952 18.1888 6.58005 18.2601 6.42366 18.5616C6.24055 18.9143 5.6641 19.5675 5.38989 19.7327C5.29609 19.7892 5.07446 19.8458 4.88021 19.8628C4.69114 19.8794 4.49516 19.9088 4.44475 19.9282C4.31089 19.9797 4.3235 20.2933 4.46517 20.4355C4.56346 20.5341 4.62126 20.5449 4.93136 20.5227C5.73214 20.4652 6.55577 19.8187 7.0123 18.8894C7.32942 18.2439 7.39081 17.9141 7.28693 17.4142C7.18543 16.9257 6.93561 16.4609 6.55445 16.0516C6.19389 15.6644 5.86056 15.4384 5.4308 15.2898C4.51959 14.9746 3.69754 15.0762 2.78254 15.6169C2.61068 15.7185 2.20424 16.0763 1.83391 16.4521L1.18599 17.1096V16.4367C1.18599 14.3512 1.69884 12.6152 2.71651 11.256C3.1487 10.6788 4.13401 9.60678 4.42052 9.40203C4.57027 9.29504 4.58267 9.29393 4.64675 9.38185C4.68402 9.43296 4.74144 9.64555 4.77428 9.85417C4.92291 10.7974 5.28786 11.7405 5.74576 12.3646C6.73355 13.711 8.7237 13.9815 9.89138 12.928C11.0562 11.8773 10.644 9.79485 9.25148 9.69465C8.80731 9.66271 8.55701 9.78235 8.53252 10.0383C8.5055 10.3206 8.59533 10.3818 8.97627 10.3408C9.29086 10.3071 9.30997 10.312 9.49661 10.4765C9.94733 10.8736 10.0525 11.4733 9.76391 12.0001C9.58429 12.328 9.3542 12.5354 8.94518 12.7379C8.68517 12.8667 8.59697 12.8816 8.10064 12.8816C7.59477 12.8816 7.51897 12.8681 7.23172 12.7266C6.62508 12.4278 5.97315 11.6105 5.66188 10.7588C5.50749 10.3364 5.45993 8.91281 5.58398 8.42708C6.03042 6.6784 7.93844 4.65315 10.2248 3.50115C11.3825 2.91777 12.062 2.77333 13.6693 2.76883C14.9109 2.76534 15.2246 2.81385 16.1238 3.14842C17.1567 3.53272 17.9422 4.02072 18.6092 4.6925C19.374 5.46269 19.7087 6.17028 19.752 7.10868C19.7952 8.04384 19.5418 8.74423 18.9674 9.27788C18.5707 9.64635 18.217 9.78331 17.6621 9.78331C16.9058 9.78331 16.4274 9.52829 16.1358 8.96969C16.0126 8.73358 15.9937 8.63449 15.9928 8.2209C15.9921 7.89825 16.0237 7.64434 16.0905 7.43503C16.2029 7.08336 16.1689 6.93718 15.9401 6.78671C15.8123 6.70271 15.7983 6.70298 15.7012 6.79111C15.3935 7.07049 15.2197 8.3621 15.404 8.99845C15.525 9.4159 15.787 9.77415 16.1532 10.0227C17.1933 10.7286 18.7185 10.5803 19.5639 9.69094C19.9073 9.32963 20.1395 8.89787 20.3032 8.31618C20.467 7.73406 20.467 6.80085 20.3031 6.21842C20.0453 5.30221 19.5217 4.54903 18.6237 3.8023C17.8285 3.14111 16.9008 2.64209 15.9387 2.3581C15.7212 2.29391 15.5431 2.22575 15.5431 2.20668C15.5431 2.14043 17.2 1.40758 17.872 1.17661C18.5514 0.943092 19.2858 0.763653 19.9242 0.675099C20.4493 0.602328 22.1948 0.649465 22.7481 0.751419Z" fill="#272727" fill-opacity="0.38"/>
</svg>
