<svg xmlns:dc="http://purl.org/dc/elements/1.1/" xmlns:cc="http://creativecommons.org/ns#" xmlns:rdf="http://www.w3.org/1999/02/22-rdf-syntax-ns#" xmlns:svg="http://www.w3.org/2000/svg" xmlns="http://www.w3.org/2000/svg" viewBox="0 0 128 128" fill="none"><metadata><rdf:RDF><cc:Work><dc:format>image/svg+xml</dc:format><dc:type rdf:resource="http://purl.org/dc/dcmitype/StillImage"/><dc:title>Croodles - Doodle your face</dc:title><dc:creator><cc:Agent><dc:title>vijay verma</dc:title></cc:Agent></dc:creator><dc:source>https://www.figma.com/community/file/966199982810283152</dc:source><cc:license rdf:resource="https://creativecommons.org/licenses/by/4.0/"/></cc:Work><cc:License rdf:about="https://creativecommons.org/licenses/by/4.0/"><cc:permits rdf:resource="https://creativecommons.org/ns#Reproduction"/><cc:permits rdf:resource="https://creativecommons.org/ns#Distribution"/><cc:permits rdf:resource="https://creativecommons.org/ns#DerivativeWorks"/><cc:requires rdf:resource="https://creativecommons.org/ns#Notice"/><cc:requires rdf:resource="https://creativecommons.org/ns#Attribution"/></cc:License></rdf:RDF></metadata><mask id="avatarsRadiusMask"><rect width="128" height="128" rx="0" ry="0" x="0" y="0" fill="#fff"/></mask><g mask="url(#avatarsRadiusMask)"><g transform="translate(7 4)"><g stroke-width="3" stroke-linecap="round" stroke-linejoin="round"><path d="M20.42 39.818c2.168-3.167 9-8.4 19-4" stroke="#000"/><path d="M28.92 35.318c-1 .5-2.7 2.1-1.5 4.5 1.5 3 6.5.5 6-1.5-.4-1.6-2.166-2-3-2M16.99 24.619c4.828-1.675 16.183-3.573 22.976 2.233M71.4 24.619c4.829-1.675 16.184-3.573 22.977 2.233" stroke="#000"/><path d="M67.944 28.07c6.41-.85 24.343 1.538 27.055 3.166 2.96 1.776 3.452 15.124 1.17 21.6-1.129 3.2-13.275 6.681-23.796 0-7.518-4.774-5.832-18.864-4.97-23.74" stroke="#F24E1E"/><path d="M70.584 31.088c-.693 1.764-1.81 8.396-2.519 10.705l5.117-10.22c-.793 3.218-3.57 14.255-3.333 15.205.297 1.189 5.822-15.28 6.416-15.205.594.074-4.337 16.914-4.337 17.88 0 .965 5.786-17.185 6.678-17.185.89 0-4.375 17.927-3.781 18.818.594.891 5.141-17.296 5.884-18.187.743-.891-4.547 20.192-3.73 20.118.817-.074 6.164-20.944 6.907-19.013.743 1.931-5.108 21.938-3.177 20.304 1.931-1.634 5.625-21.79 7.036-20.304 1.411 1.485-4.491 20.824-3.229 20.304 1.263-.52 5.502-19.441 6.096-19.441.595 0-2.436 20.811-1.86 19.441.172-.41 4.602-18.253 4.973-19.441.372-1.189.075 3.064 0 6.926-.059 3.09-2.093 10.51-2.44 12.515l4.378-14.574c.066 2.295.108 7.524-.246 10.084-.354 2.56-.787 3.657-.959 3.886M6 3c29.494 17.714 55.633 25.247 58.601 26.027 2.969.781 27.994 4.49 32.056 2.303 3.249-1.75 11.191-14.01 12.909-15.99" stroke="#F24E1E"/></g></g><g transform="translate(47 46)"><path d="M13.749 15c3.806 2.131 10.88 11.851 10.149 17.332-.476 3.566-8.483 2.42-12.898 1.66" stroke="#000" stroke-width="3" stroke-linecap="round" stroke-linejoin="round"/></g><g transform="translate(30 93)"><path d="M22 16.73c7.19 3.826 23.134 1.937 25.412-7.063.236-.934.055-2.667-1.167-2.667" stroke="#000" stroke-width="3" stroke-linecap="round" stroke-linejoin="round"/></g></g></svg>