<svg width="39" height="35" viewBox="0 0 39 35" fill="none" xmlns="http://www.w3.org/2000/svg">
<path fill-rule="evenodd" clip-rule="evenodd" d="M0.254359 0.427989C0.0236079 1.29291 -0.0714488 12.5749 0.058945 23.6345L0.193049 35L17.4428 34.9878C33.3963 34.9766 38.6721 34.8689 38.9698 34.5484C39.0338 34.4794 38.9926 34.3223 38.8785 34.1994C38.734 34.0438 37.2694 33.9504 34.0755 33.8929L29.4804 33.8104V25.679C29.4804 21.2068 29.4297 17.2742 29.3675 16.9402C29.1802 15.9317 28.6947 15.7403 26.3372 15.7456C24.0366 15.751 22.8351 16.0018 22.6987 16.5055C22.4582 17.394 22.3759 19.121 22.2519 25.8696C22.1777 29.8974 22.0559 33.3426 21.9812 33.5258C21.7822 34.0126 21.3702 33.9323 21.1709 33.3681C21.0757 33.0982 20.9455 30.3163 20.8817 27.1861C20.7795 22.1638 20.7329 21.4948 20.4852 21.4963C19.5039 21.5024 13.5058 21.8902 13.4489 21.9513C13.4107 21.9926 13.3052 24.4102 13.2144 27.3242C13.1238 30.2381 12.999 32.8646 12.9374 33.161C12.8289 33.6824 12.4381 34.0257 12.2202 33.791C11.9288 33.4773 11.8013 30.8173 11.6264 21.4029C11.5214 15.7553 11.3946 11.0902 11.3444 11.036C11.2944 10.9818 9.96305 10.9105 8.38595 10.8776C4.42979 10.795 4.75489 10.3773 4.56001 15.7936C4.47537 18.1445 4.40276 23.171 4.39869 26.9633L4.39109 33.8587H2.82107H1.25086L1.171 17.4524C1.09238 1.30965 1.04414 0 0.528928 0C0.440762 0 0.317082 0.1925 0.254359 0.427989ZM10.3984 22.731V33.288H8.10149H5.80458V22.731V12.1739H8.10149H10.3984V22.731ZM28.2436 25.2038V33.288H25.9467H23.6498L23.6729 26.7731C23.6857 23.1898 23.7452 19.6196 23.8055 18.8393C23.9359 17.1487 23.9062 17.1673 26.5209 17.1386L28.2436 17.1196V25.2038ZM19.586 28.1522V33.288H17.0241H14.4622V28.1522V23.0163H17.0241H19.586V28.1522Z" fill="#272727" fill-opacity="0.38"/>
</svg>
