<svg width="23" height="23" viewBox="0 0 23 23" fill="none" xmlns="http://www.w3.org/2000/svg">
<path fill-rule="evenodd" clip-rule="evenodd" d="M10.1183 0.165043C9.83713 0.276961 9.71917 0.469875 9.71917 0.817576C9.71917 1.43515 9.26931 2.09225 8.8466 2.09225C8.67045 2.09225 8.22486 1.85506 7.8566 1.56516C7.00976 0.898572 6.4187 0.898747 5.48849 1.56621C4.78568 2.07046 4.75233 2.13652 4.75233 3.02062C4.75233 4.40528 4.449 4.72768 3.14698 4.72768C2.11583 4.72768 2.08266 4.74296 1.56043 5.45681C0.841126 6.44053 0.840593 7.21605 1.55937 7.74226C2.47717 8.41447 2.15077 9.26888 0.849817 9.59918C0.303111 9.73781 0.209805 9.84586 0.0682505 10.5038C-0.125101 11.4036 0.115968 12.809 0.495044 12.9917C0.641388 13.0623 0.999177 13.1899 1.29009 13.2754C1.625 13.3738 1.88008 13.6022 1.98509 13.8981C2.12647 14.2968 2.06829 14.4586 1.58899 14.9992C0.904807 15.7712 0.882811 16.2805 1.48983 17.3066C2.09773 18.3341 2.42413 18.4966 3.21864 18.1678C4.2599 17.7369 4.62266 18.0503 4.84617 19.5739C5.01203 20.7042 5.18143 21.0103 5.87235 21.4275C6.67946 21.9149 7.25881 21.8611 7.8566 21.243C8.13705 20.9531 8.51116 20.716 8.68802 20.716C9.17193 20.716 9.71917 21.3543 9.71917 21.9186C9.71917 22.6778 10.2064 23 11.3543 23C12.5449 23 13.0718 22.6474 13.3503 21.6647C13.4885 21.1766 13.6756 20.9382 14.0128 20.8208C14.4146 20.6808 14.5789 20.7407 15.144 21.2322C15.7033 21.7185 15.9013 21.7919 16.4263 21.7074C17.4071 21.5498 17.9893 20.869 18.1257 19.7203C18.3198 18.084 18.6989 17.7256 19.7674 18.1678C20.5618 18.4966 20.9123 18.3251 21.5099 17.3152C22.0882 16.3376 22.0701 15.8673 21.4217 15.0185C20.5887 13.928 20.8222 13.166 21.9915 13.1584C22.7087 13.1537 22.8792 12.9054 22.97 11.7337C23.0883 10.2103 22.8744 9.72445 22.016 9.56545C21.6431 9.4964 21.2383 9.3583 21.1163 9.25851C20.7386 8.94929 20.8706 8.33014 21.4267 7.80235C22.0696 7.19233 22.0782 7.00961 21.5211 5.82419C21.0271 4.77336 20.5997 4.53037 19.5013 4.6762C18.45 4.81588 18.2171 4.55919 18.2667 3.31544C18.3141 2.12651 18.1277 1.83397 17.0241 1.36539C15.9612 0.914208 15.5642 0.953037 14.9808 1.56516C14.1553 2.43151 13.5259 2.19889 13.3215 0.951983C13.2449 0.484633 13.0979 0.262906 12.7864 0.145717C12.2475 -0.0573871 10.6476 -0.0456155 10.1183 0.165043ZM12.5001 2.23157C12.8837 2.72844 13.8933 3.14642 14.7098 3.14642C14.9441 3.14642 15.439 2.94226 15.8097 2.69295C16.7346 2.07028 17.0476 2.22033 16.8971 3.21424C16.652 4.83309 17.7685 6.04539 19.5045 6.04539C20.0569 6.04539 20.5678 6.1032 20.6395 6.174C20.7111 6.24463 20.5483 6.61939 20.2772 7.00662C19.8567 7.60785 19.7971 7.83766 19.8691 8.58103C19.9725 9.64662 20.3296 10.2141 21.2649 10.799C21.7882 11.1262 21.9661 11.3459 21.9257 11.6149C21.8677 12.0001 21.7052 12.1192 20.7739 12.46C19.6592 12.8678 19.3546 14.4658 20.1742 15.6057C20.827 16.5139 20.4546 17.3874 19.6317 16.8784C19.1015 16.5504 18.4778 16.6421 17.8862 17.1351C17.0937 17.7956 16.7788 18.499 16.846 19.4583C16.9023 20.2625 16.8936 20.2776 16.3419 20.3307C15.9121 20.3719 15.7548 20.304 15.6705 20.0406C15.4601 19.3845 14.1909 19.3865 12.8621 20.045C12.3787 20.2845 12.162 20.522 12.0868 20.8941C11.9644 21.5003 11.6305 21.8227 11.2101 21.7408C10.869 21.6742 10.6724 21.3683 10.5254 20.6752C10.3187 19.7008 8.4693 19.3338 7.18945 20.0132C6.13861 20.571 5.95182 20.5004 6.08859 19.5971C6.22322 18.7074 5.96548 18.0942 5.12307 17.3011C4.67215 16.8765 4.38691 16.7718 3.5108 16.709C2.32177 16.6238 2.27743 16.5502 2.80107 15.5329C3.44641 14.2792 3.0739 12.5561 2.11476 12.3581C1.37169 12.2046 1.11962 12.0132 1.06392 11.5608C1.02135 11.2142 1.14889 11.0752 1.77347 10.7879C2.71557 10.3548 3.15514 9.56246 3.15549 8.29728C3.15585 7.55567 3.09305 7.36697 2.81739 7.28036C2.40798 7.15175 2.22208 6.73183 2.37002 6.26993C2.46475 5.97476 2.59016 5.94349 3.30539 6.03661C4.97708 6.25429 6.17143 5.11227 6.17143 3.29611C6.17143 2.08575 6.33374 2.01529 7.32444 2.79503C7.6927 3.08493 8.1853 3.32211 8.41892 3.32211C9.16057 3.32211 10.0704 2.83052 10.3884 2.25793C10.557 1.9545 10.8489 1.50542 11.0375 1.2598L11.3802 0.813535L11.7471 1.27245C11.9487 1.52493 12.2877 1.95661 12.5001 2.23157ZM9.2757 5.72123C8.74159 5.86425 7.39735 6.94003 6.75822 7.73593C5.96317 8.72598 5.57558 10.0005 5.58942 11.5798C5.62064 15.1654 7.79345 17.2634 11.493 17.2797C13.3219 17.288 14.2317 16.9322 15.5932 15.6772C16.9495 14.4268 17.1609 13.8421 17.1655 11.3279C17.17 8.90571 16.9218 8.16885 15.748 7.11836C14.4657 5.9709 13.7597 5.72615 11.5817 5.67345C10.5085 5.64744 9.47082 5.66888 9.2757 5.72123ZM13.851 7.06899C15.3842 7.95889 16.5062 9.76645 16.509 11.351C16.5134 13.8512 13.9165 16.3273 11.2929 16.3245C10.1541 16.3232 9.30302 15.9251 8.16951 14.8632C6.88612 13.6611 6.5262 12.9337 6.52638 11.5429C6.52656 9.56703 7.74343 7.66882 9.54178 6.83883C10.6992 6.30472 12.7204 6.41277 13.851 7.06899Z" fill="#272727" fill-opacity="0.38"/>
</svg>
