<svg width="78" height="78" viewBox="0 0 78 78" fill="none" xmlns="http://www.w3.org/2000/svg">
<path d="M41.8364 53.8909H20.9182C19.9255 53.8909 19.1455 53.1109 19.1455 52.1182C19.1455 51.1255 19.9255 50.3455 20.9182 50.3455H41.8364C42.8291 50.3455 43.6091 51.1255 43.6091 52.1182C43.6091 53.1109 42.7937 53.8909 41.8364 53.8909ZM48.9273 38.9291H20.9182C19.9255 38.9291 19.1455 38.1491 19.1455 37.1564C19.1455 36.1636 19.9255 35.3836 20.9182 35.3836H48.9273C49.9201 35.3836 50.7001 36.1636 50.7001 37.1564C50.7001 38.1491 49.8846 38.9291 48.9273 38.9291ZM48.9273 23.9318H20.9182C19.9255 23.9318 19.1455 23.1518 19.1455 22.1591C19.1455 21.1664 19.9255 20.3864 20.9182 20.3864H48.9273C49.9201 20.3864 50.7001 21.1664 50.7001 22.1591C50.7001 23.1518 49.8846 23.9318 48.9273 23.9318Z" fill="#353E43"/>
<path d="M53.0045 66.6546H16.8409C13.5081 66.6546 10.8136 63.96 10.8136 60.6273V12.4091C10.8136 9.07637 13.5081 6.38182 16.8409 6.38182H53.0045C56.3372 6.38182 59.0318 9.07637 59.0318 12.4091V25.35C59.0318 26.3427 58.2518 27.1227 57.2591 27.1227C56.2663 27.1227 55.4863 26.3427 55.4863 25.35V12.4091C55.4863 11.0264 54.3872 9.92728 53.0045 9.92728H16.8409C15.4581 9.92728 14.3591 11.0264 14.3591 12.4091V60.6273C14.3591 62.01 15.4581 63.1091 16.8409 63.1091H53.0045C54.3872 63.1091 55.4863 62.01 55.4863 60.6273V51.7636C55.4863 50.7709 56.2663 49.9909 57.2591 49.9909C58.2518 49.9909 59.0318 50.7709 59.0318 51.7636V60.6273C59.0318 63.96 56.3372 66.6546 53.0045 66.6546Z" fill="#353E43"/>
<path d="M48.9272 44.46L45.9845 50.3455L52.2245 47.58L48.9272 44.46ZM65.0661 27.4631L68.395 30.6515L52.6258 47.1155L49.2974 43.9275L65.0661 27.4631Z" fill="#353E43"/>
<path d="M65.0309 27.4785C64.8343 27.6937 64.8251 28.0639 65.0052 28.5075C65.1853 28.9512 65.54 29.432 65.9914 29.8441C66.4427 30.2563 66.9536 30.5661 67.4117 30.7054C67.8698 30.8446 68.2376 30.8019 68.4342 30.5867C68.5316 30.4801 68.5839 30.3344 68.5883 30.1578C68.5927 29.9813 68.5491 29.7773 68.4599 29.5576C68.3707 29.338 68.2377 29.1069 68.0685 28.8775C67.8993 28.6482 67.6972 28.4251 67.4737 28.221C67.2503 28.0169 67.0098 27.8358 66.7661 27.6881C66.5224 27.5403 66.2802 27.4287 66.0534 27.3598C65.8265 27.2908 65.6195 27.2658 65.4441 27.2862C65.2686 27.3066 65.1282 27.3719 65.0309 27.4785Z" fill="#353E43"/>
</svg>
