<svg width="55" height="25" viewBox="0 0 55 25" fill="none" xmlns="http://www.w3.org/2000/svg">
<path fill-rule="evenodd" clip-rule="evenodd" d="M2.67118 0.297619C2.77637 0.461429 3.34325 1.15643 3.93072 1.84214C5.19152 3.31429 5.62434 4.62571 5.45186 6.44952C5.23872 8.70095 4.19056 10.0638 1.81056 11.1836C-0.383406 12.216 -0.576216 12.684 1.19272 12.684C2.41209 12.684 3.52803 12.1336 5.05545 10.7788C5.89046 10.0381 6.30369 9.80524 6.38428 10.0305C6.44855 10.21 6.62831 10.8393 6.78346 11.4286C7.37695 13.6824 9.04145 15.2355 10.8649 15.2371C12.2454 15.2386 13.3847 14.7043 14.9006 13.3445C15.6374 12.6836 16.3424 12.1431 16.4671 12.1431C16.5917 12.1433 16.8857 12.7624 17.1199 13.5186C17.5899 15.036 18.7143 16.6674 19.7213 17.2931C20.5664 17.8181 22.2344 17.8086 23.3468 17.2724C23.8301 17.0393 24.8009 16.4326 25.5039 15.9243C26.2071 15.416 26.8443 15 26.9196 15C26.9951 15 27.1342 15.4019 27.2289 15.8929C27.5005 17.3017 28.5484 18.7776 29.8198 19.5424C30.4562 19.925 31.1524 20.2371 31.367 20.2357C32.1511 20.2312 34.3049 19.091 35.762 17.9095C36.5837 17.2431 37.3311 16.7419 37.4227 16.7955C37.5143 16.8493 37.7195 17.5205 37.8784 18.2874C38.2467 20.0626 39.333 21.701 40.4853 22.2195C42.2138 22.9974 43.8994 22.6021 45.87 20.9571C46.5006 20.4307 47.0969 20 47.1948 20C47.2927 20 47.6914 20.7112 48.081 21.5805C48.8796 23.3624 50.3613 25 51.175 25C51.9322 25 51.8536 24.5921 50.814 23.1281C50.3179 22.4293 49.6988 21.4129 49.4387 20.8693C48.8427 19.6248 48.8108 17.6888 49.3732 16.8983C50.0877 15.8936 52.0266 14.274 53.4719 13.4743C55.1419 12.5505 55.5145 11.6667 54.2341 11.6667C53.1603 11.6667 51.7492 12.3957 49.8223 13.946C48.8028 14.7662 48.1576 15.1419 48.0986 14.9498C48.0466 14.781 47.8726 14.0348 47.7122 13.2914C46.9786 9.89357 44.0556 8.31857 41.4936 9.94048C40.9249 10.3005 40.0545 10.9029 39.5597 11.2786C38.4463 12.1245 38.1816 11.9652 37.4235 9.9931C36.9547 8.77405 36.6846 8.44405 35.5744 7.735C34.7989 7.23976 33.9692 6.90571 33.5178 6.90714C32.304 6.91071 30.2749 7.94667 29.3551 9.03214C28.1866 10.4112 27.5949 10.2917 27.1995 8.59714C26.6314 6.16357 24.7989 4.52381 22.6479 4.52381C21.3376 4.52381 20.3856 4.96381 18.9152 6.24929C17.7257 7.28905 17.5585 7.2631 17.1018 5.96881C16.549 4.40071 15.5661 3.10595 14.5591 2.61857C12.685 1.7119 11.0891 2.11524 8.94705 4.03643C8.21021 4.69738 7.54616 5.2381 7.4711 5.2381C7.39629 5.2381 6.94338 4.45571 6.46437 3.49952C5.31529 1.20452 4.1991 0 3.22149 0C2.69327 0 2.53486 0.0857143 2.67118 0.297619ZM13.8374 3.94357C14.3585 4.19929 14.8263 4.77714 15.3309 5.78881C16.5518 8.23619 16.2407 9.65762 13.9569 12.0667C11.6778 14.4705 10.13 14.5364 8.77558 12.2874C7.39704 9.99786 7.52005 8.15952 9.19158 6.08357C10.0836 4.97548 12.0662 3.57143 12.7385 3.57143C12.9255 3.57143 13.4201 3.73881 13.8374 3.94357ZM24.5167 6.79333C25.3163 7.62548 26.1772 9.94381 26.2076 11.3464C26.2299 12.3824 26.1129 12.7164 25.4582 13.4893C25.0316 13.9929 24.1278 14.806 23.4497 15.2964C21.199 16.9243 19.6837 16.3598 18.6802 13.5193C17.7551 10.9005 18.3829 8.7969 20.5829 7.14452C22.3082 5.84857 23.5062 5.74167 24.5167 6.79333ZM34.9767 9.24191C35.7931 10.0502 36.6527 12.2552 36.6527 13.5419C36.6527 14.2831 36.4132 14.7788 35.4956 15.9364C34.091 17.7088 32.9763 18.549 31.787 18.7319C31.0067 18.8521 30.7813 18.765 30.0309 18.0533C29.1183 17.1879 28.3679 15.3017 28.3679 13.8736C28.3679 12.9369 28.752 12.1688 29.9129 10.7829C31.8161 8.51119 33.6689 7.94738 34.9767 9.24191ZM44.9139 11.3271C46.3753 12.4933 47.1526 16.2755 46.2867 18.006C45.7994 18.9795 43.8901 20.6426 42.717 21.1155C41.9776 21.4133 41.8051 21.4088 41.2726 21.0781C40.5752 20.6448 39.6297 19.2914 39.2052 18.1193C38.3027 15.6267 39.6546 12.4393 42.1435 11.1919C43.3792 10.5726 44.0069 10.6033 44.9139 11.3271Z" fill="#272727" fill-opacity="0.38"/>
</svg>
