<svg width="38" height="38" viewBox="0 0 38 38" fill="none" xmlns="http://www.w3.org/2000/svg">
<path d="M28.5864 34.5454H10.9509C9.8109 34.5454 8.87817 33.6127 8.87817 32.4727V8.72272C8.87817 7.58272 9.8109 6.64999 10.9509 6.64999H28.5864C29.7264 6.64999 30.6591 7.58272 30.6591 8.72272V32.4727C30.6591 33.6127 29.7264 34.5454 28.5864 34.5454Z" fill="#FF5F19"/>
<path d="M20.3818 26.2546H10.1909C9.70727 26.2546 9.32727 25.8746 9.32727 25.3909C9.32727 24.9073 9.70727 24.5273 10.1909 24.5273H20.3818C20.8655 24.5273 21.2455 24.9073 21.2455 25.3909C21.2455 25.8746 20.8482 26.2546 20.3818 26.2546ZM23.8364 18.9655H10.1909C9.70727 18.9655 9.32727 18.5855 9.32727 18.1018C9.32727 17.6182 9.70727 17.2382 10.1909 17.2382H23.8364C24.32 17.2382 24.7 17.6182 24.7 18.1018C24.7 18.5855 24.3027 18.9655 23.8364 18.9655ZM23.8364 11.6591H10.1909C9.70727 11.6591 9.32727 11.2791 9.32727 10.7955C9.32727 10.3118 9.70727 9.93182 10.1909 9.93182H23.8364C24.32 9.93182 24.7 10.3118 24.7 10.7955C24.7 11.2791 24.3027 11.6591 23.8364 11.6591Z" fill="#353E43"/>
<path d="M25.8227 32.4727H8.20455C6.58092 32.4727 5.26819 31.16 5.26819 29.5364V6.04546C5.26819 4.42183 6.58092 3.1091 8.20455 3.1091H25.8227C27.4464 3.1091 28.7591 4.42183 28.7591 6.04546V12.35C28.7591 12.8336 28.3791 13.2136 27.8955 13.2136C27.4118 13.2136 27.0318 12.8336 27.0318 12.35V6.04546C27.0318 5.37183 26.4964 4.83637 25.8227 4.83637H8.20455C7.53092 4.83637 6.99546 5.37183 6.99546 6.04546V29.5364C6.99546 30.21 7.53092 30.7455 8.20455 30.7455H25.8227C26.4964 30.7455 27.0318 30.21 27.0318 29.5364V25.2182C27.0318 24.7346 27.4118 24.3546 27.8955 24.3546C28.3791 24.3546 28.7591 24.7346 28.7591 25.2182V29.5364C28.7591 31.16 27.4464 32.4727 25.8227 32.4727Z" fill="#353E43"/>
<path d="M23.8363 21.66L22.4027 24.5273L25.4427 23.18L23.8363 21.66ZM31.6989 13.3795L33.3206 14.9328L25.6382 22.9537L24.0167 21.4006L31.6989 13.3795Z" fill="#353E43"/>
<path d="M31.6817 13.3869C31.5859 13.4918 31.5814 13.6721 31.6692 13.8883C31.7569 14.1044 31.9297 14.3386 32.1496 14.5394C32.3695 14.7402 32.6184 14.8912 32.8416 14.959C33.0648 15.0269 33.2439 15.0061 33.3397 14.9012C33.3871 14.8493 33.4126 14.7783 33.4148 14.6923C33.4169 14.6062 33.3957 14.5069 33.3522 14.3999C33.3088 14.2928 33.244 14.1803 33.1615 14.0685C33.0791 13.9568 32.9807 13.8481 32.8718 13.7487C32.7629 13.6493 32.6458 13.561 32.527 13.489C32.4083 13.4171 32.2903 13.3627 32.1798 13.3291C32.0693 13.2955 31.9684 13.2833 31.883 13.2933C31.7975 13.3032 31.7291 13.335 31.6817 13.3869Z" fill="#353E43"/>
</svg>
