<svg width="29" height="30" viewBox="0 0 29 30" fill="none" xmlns="http://www.w3.org/2000/svg">
<path fill-rule="evenodd" clip-rule="evenodd" d="M16.0539 0.0444277C14.5826 0.410826 13.5134 1.06086 12.1756 2.40202L11.1775 3.40265L9.16851 3.25106C8.0635 3.16771 6.84649 3.12838 6.46387 3.16361C5.001 3.29847 3.38409 4.42493 2.75514 5.74748C2.0793 7.16871 2.03448 8.52766 2.58209 10.9926L2.86702 12.2749L2.49004 12.8081C0.661597 15.3944 0.322177 16.0576 0.0738919 17.5286C-0.191099 19.0984 0.252473 20.4011 1.47201 21.6351C2.37782 22.5517 3.36681 23.0999 5.05101 23.6192C5.73526 23.83 6.37285 24.1027 6.51871 24.2468C6.66065 24.387 6.95802 24.9449 7.17958 25.4867C7.40113 26.0285 7.75161 26.7623 7.95854 27.1173C8.51594 28.0739 9.7099 29.2569 10.5237 29.659C11.1313 29.9593 11.3404 30.0005 12.2519 30C14.0737 29.9992 15.5895 29.2626 17.0988 27.6447L17.9131 26.7718L19.5105 26.9069C21.7084 27.0929 22.8885 27.015 23.836 26.6211C25.4423 25.9532 26.4806 24.5188 26.7099 22.6504C26.8435 21.5617 26.7796 20.6737 26.4583 19.1554C26.3268 18.5344 26.2505 17.8998 26.2887 17.7453C26.3269 17.5907 26.7013 17.0218 27.1208 16.4808C28.5 14.7021 29.0681 13.2339 28.9935 11.6403C28.9355 10.3962 28.5459 9.54889 27.5792 8.56324C26.7742 7.74265 25.7713 7.18217 24.2898 6.72493C23.0422 6.33992 22.7926 6.07981 21.8994 4.23319C20.7051 1.76451 20.1254 1.08416 18.6197 0.383785C18.0025 0.0966365 16.5928 -0.0898402 16.0539 0.0444277ZM18.3938 1.15252C19.3724 1.64944 20.3322 2.73927 20.9998 4.11168C21.2867 4.70131 21.5355 5.3654 21.5528 5.58746C21.5832 5.97961 21.5695 5.99389 21.0657 6.09269C20.2541 6.25189 17.0837 6.11001 16.3456 5.88151C15.9992 5.77417 14.8351 5.23839 13.7586 4.6909L11.8015 3.6953L12.4875 3.06177C14.2893 1.39811 15.4291 0.801221 16.8132 0.79689C17.5615 0.794432 17.7896 0.845821 18.3938 1.15252ZM9.22808 3.97109C10.2511 4.10442 10.2524 4.10501 10.1797 4.41007C10.1398 4.57817 9.70829 5.47567 9.22082 6.40466C8.62009 7.54974 8.1491 8.28675 7.75853 8.69271C6.84788 9.63961 3.85947 11.5461 3.50346 11.4072C3.24953 11.3083 3.05585 10.1093 3.04663 8.57858C3.03603 6.82045 3.22049 6.20542 4.02768 5.30804C5.17947 4.02763 6.68715 3.64005 9.22808 3.97109ZM13.6787 5.53806C14.5269 5.95901 15.1945 6.33009 15.1625 6.36263C15.1306 6.39517 14.6318 6.55028 14.0544 6.70726C13.4768 6.86423 12.174 7.27991 11.1592 7.63074C10.1443 7.98169 9.31391 8.21885 9.31391 8.15775C9.31391 7.75459 10.9857 4.86824 11.2985 4.73128C11.6018 4.5983 12.1809 4.79461 13.6787 5.53806ZM21.1662 6.87325C21.724 6.9827 21.8134 7.07752 22.0013 7.75916C22.1363 8.24812 22.4388 11.3295 22.3519 11.3295C22.1826 11.3295 17.9549 7.19493 17.9549 7.02929C17.9549 6.9573 18.0456 6.8743 18.1566 6.8448C18.5111 6.75068 20.6444 6.77082 21.1662 6.87325ZM17.3213 7.90232C18.6218 8.88949 21.6377 11.9321 21.9367 12.5586C22.3083 13.3371 22.2044 14.3842 21.4373 17.5922L20.7655 20.4017L20.031 20.7759C18.8409 21.3821 16.9091 22.0706 14.8648 22.6168L12.9536 23.1274L12.1419 22.5709C10.451 21.4115 7.82408 18.8103 7.35954 17.8353C7.12209 17.3369 7.10123 17.1608 7.15227 16.0904C7.21898 14.6896 7.92466 11.3438 8.343 10.4446C8.67482 9.7315 8.9541 9.45208 9.72891 9.05818C10.8268 8.49992 15.1993 7.13675 15.9387 7.12212C16.1918 7.1172 16.5621 7.32615 17.3213 7.90232ZM23.876 7.36127C25.1683 7.74932 26.6303 8.5698 27.2231 9.23974C27.9757 10.0904 28.2425 10.9036 28.1847 12.1731C28.1423 13.1058 28.093 13.2846 27.6028 14.2802C27.0423 15.4186 26.1202 16.7143 25.8707 16.7143C25.7089 16.7143 24.4786 14.7675 23.88 13.5646C23.6687 13.1401 23.4445 12.5557 23.3817 12.266C23.1656 11.2686 22.8342 7.11533 22.9709 7.11533C23.0183 7.11533 23.4256 7.22595 23.876 7.36127ZM7.46381 10.5979C7.1661 11.9395 6.07687 16.4133 6.0385 16.4523C5.92444 16.5683 4.1293 13.1502 4.1293 12.8172C4.1293 12.4853 7.01033 10.1589 7.42118 10.1589C7.52349 10.1589 7.53501 10.277 7.46381 10.5979ZM13.5938 11.4553C11.6851 11.8366 10.4151 13.9839 10.979 15.8763C11.5389 17.7554 13.2154 18.8239 15.0618 18.4788C15.9689 18.3093 16.4968 18.0418 17.0777 17.4574C17.653 16.8785 17.9705 16.1514 18.0417 15.2497C18.187 13.4106 17.0752 11.9355 15.2067 11.4887C14.4803 11.315 14.3134 11.3116 13.5938 11.4553ZM3.59517 13.8263C3.6833 14.0406 4.05464 14.7123 4.42021 15.3188C6.1801 18.2381 6.21144 18.3378 6.24059 21.1017C6.25165 22.154 6.2293 23.0472 6.19093 23.0864C6.15256 23.1258 5.66002 22.9935 5.0964 22.7926C2.93442 22.0219 1.71926 21.1243 1.14653 19.8749C0.763215 19.0387 0.75227 17.7099 1.11992 16.6674C1.60957 15.2797 2.84086 13.4366 3.27833 13.4366C3.36451 13.4366 3.50703 13.6119 3.59517 13.8263ZM23.7237 14.9291C24.2537 15.7743 24.751 16.8483 24.824 17.3051C24.8878 17.7049 24.8671 17.7313 23.9316 18.4388C23.4049 18.8373 22.719 19.3041 22.4076 19.4764L21.8413 19.7894L21.921 19.2176C22.0563 18.2475 22.8101 15.0351 22.9824 14.695C23.0721 14.5179 23.1972 14.3731 23.2603 14.3731C23.3234 14.3731 23.532 14.6233 23.7237 14.9291ZM25.5276 18.8563C25.5939 19.0044 25.7378 19.5349 25.8474 20.0353C26.1382 21.3632 26.0519 22.8638 25.6305 23.8093C25.2308 24.7057 24.4476 25.499 23.5428 25.9237C22.95 26.202 22.671 26.2544 21.5842 26.2922C20.3371 26.3355 19.0488 26.1837 18.837 25.9686C18.7698 25.9003 18.9264 25.5352 19.2509 25.0032C19.5379 24.5326 20.0108 23.6632 20.3019 23.0712C20.9026 21.8497 21.2828 21.3668 22.2219 20.6326C22.8764 20.1209 25.2092 18.5911 25.3389 18.5885C25.3763 18.5878 25.4611 18.7084 25.5276 18.8563ZM9.71716 21.5723C11.2829 23.1244 11.3217 23.1746 11.0421 23.2878C10.6626 23.4414 7.52119 23.3684 7.35781 23.2022C7.23903 23.0813 7.00376 21.4894 6.83232 19.646L6.7511 18.7735L7.42763 19.3733C7.79977 19.7033 8.83001 20.6928 9.71716 21.5723ZM19.6213 22.4209C19.3141 23.169 18.5366 24.575 18.1699 25.0453C17.9206 25.3651 17.7319 25.4938 17.5118 25.4938C17.1055 25.4938 13.8075 23.8479 14.0377 23.76C14.7897 23.4727 19.4385 21.9899 19.5982 21.9864C19.7883 21.9822 19.7898 22.0103 19.6213 22.4209ZM12.4247 24.2132C13.095 24.3664 16.0507 25.8474 16.5661 26.2885L16.9632 26.6282L16.739 26.9399C16.4794 27.3008 14.8604 28.5585 14.2681 28.8594C13.6891 29.1533 11.5465 29.149 10.7896 28.8521C9.8561 28.4862 8.42734 26.6902 7.85208 25.1597C7.61854 24.5386 7.72811 24.296 8.28897 24.1923C8.94016 24.0718 11.8707 24.0867 12.4247 24.2132Z" fill="#272727" fill-opacity="0.38"/>
</svg>
