<svg width="20" height="16" viewBox="0 0 20 16" fill="none" xmlns="http://www.w3.org/2000/svg">
<path fill-rule="evenodd" clip-rule="evenodd" d="M2.40125 0.250596C1.41428 0.614802 0.880562 1.08739 0.430728 1.99479C-0.0259351 2.91626 -0.131444 4.30279 0.171752 5.40015C0.840732 7.82127 3.35327 9.00952 5.67788 8.00403C6.60193 7.60435 7.90267 6.31835 8.07304 5.63603C8.21366 5.07273 8.05028 2.89338 7.80382 2.04531C7.57167 1.24579 6.7089 0.397063 5.89865 0.17066C5.05425 -0.0650601 3.13803 -0.0212508 2.40125 0.250596ZM13.5883 0.53127C13.025 1.06483 12.0089 2.67727 7.72839 9.83176C4.26611 15.6183 4.052 16.1681 5.33745 15.9665C6.20965 15.8299 6.98446 14.9001 9.07611 11.4803C12.5236 5.84446 15.6316 0.437276 15.5487 0.220027C15.4975 0.0858205 15.2083 0 14.8071 0C14.2883 0 14.0306 0.112302 13.5883 0.53127ZM4.94289 1.97044C6.07666 2.86722 5.81395 5.79607 4.52752 6.60049C4.09183 6.87299 3.39424 6.25214 3.06568 5.29946C2.66251 4.13083 2.68006 2.38303 3.09917 1.96161C3.52511 1.53333 4.39552 1.53741 4.94289 1.97044ZM14.2774 7.91559C13.3387 8.2525 12.9048 8.59905 12.4543 9.37209C11.1718 11.5725 11.7623 14.3817 13.7372 15.4766C14.4569 15.8755 14.7344 15.9329 15.9423 15.9325C18.205 15.932 19.3841 15.1059 19.8562 13.1904C20.2682 11.5194 19.7746 9.70082 18.6366 8.69615C17.6126 7.79217 15.617 7.43483 14.2774 7.91559ZM16.6438 9.57724C17.2347 10.1714 17.462 10.9891 17.3578 12.1455C17.2608 13.2208 16.9101 13.8455 16.2096 14.1909C15.1654 14.7059 14.558 13.9041 14.5661 12.0221C14.5722 10.6813 14.7185 10.2089 15.3406 9.52199C15.775 9.04254 16.1268 9.05741 16.6438 9.57724Z" fill="#272727" fill-opacity="0.38"/>
</svg>
