<svg width="29" height="37" viewBox="0 0 29 37" fill="none" xmlns="http://www.w3.org/2000/svg">
<path fill-rule="evenodd" clip-rule="evenodd" d="M6.30955 12.5265C4.81132 13.4668 3.58224 14.2536 3.57847 14.2748C3.51347 14.6287 4.7852 17.6792 6.28328 20.7632C9.01668 26.39 10.5971 29.8951 10.4417 29.9848C10.3912 30.014 9.52175 29.2311 8.50939 28.2449C5.77431 25.5808 5.10926 25.0612 4.54424 25.1476C3.871 25.2505 1.14741 26.6647 0.538485 27.2274C0.113001 27.6208 0.0641856 27.7592 0.242153 28.0674C0.560515 28.6188 1.61122 28.4927 3.18275 27.7149C3.88969 27.3648 4.53011 27.1127 4.60593 27.1547C4.68165 27.1966 5.84563 28.2928 7.19221 29.5905C11.8798 34.108 14.0941 36.0484 14.6862 36.1572C15.746 36.3519 14.9476 34.1747 11.137 26.4774C10.4156 25.0203 9.43639 23.0156 8.9611 22.0226C8.48567 21.0296 7.60581 19.193 7.00581 17.9414C6.40581 16.6897 5.89033 15.5671 5.86037 15.4465C5.81761 15.2751 7.5729 14.2041 13.971 10.4984C18.4616 7.89728 23.5351 4.8966 25.2451 3.82993C28.4606 1.82456 28.7769 1.54015 28.4404 0.95717C28.1092 0.383507 27.7031 0.514761 24.4379 2.25104C19.3283 4.96797 9.25586 10.6773 6.30955 12.5265Z" fill="#272727" fill-opacity="0.38"/>
</svg>
