<svg width="16" height="16" viewBox="0 0 16 16" fill="none" xmlns="http://www.w3.org/2000/svg">
<path fill-rule="evenodd" clip-rule="evenodd" d="M3.24054 0.961195C2.87332 1.76069 2.96268 2.37191 3.6818 3.98483C4.17752 5.09669 4.47325 6.3508 4.33879 6.77123C4.2039 7.19166 3.1214 8.37992 1.93252 9.41158C0.459818 10.6898 -0.146537 11.4998 0.029625 11.9553C0.360248 12.8096 2.40611 12.8257 4.42261 11.9899C6.38167 11.1777 7.97394 11.1701 7.97394 11.9721C7.97394 12.683 11.0304 16 11.6857 16C11.9274 16 12.355 15.7248 12.6363 15.3888C13.0439 14.9016 12.9167 14.2668 12.0108 12.2647C10.6538 9.2651 10.7334 8.5188 12.5099 7.57494C15.7051 5.87676 16.1148 5.46013 15.9774 4.04899C15.7983 2.21573 14.4804 2.08234 12.1337 3.6598C8.9424 5.805 8.34711 5.70454 6.84888 2.7687C5.37193 -0.125337 4.04476 -0.790174 3.24054 0.961195Z" fill="#272727" fill-opacity="0.38"/>
</svg>
