<svg width="34" height="34" viewBox="0 0 34 34" fill="none" xmlns="http://www.w3.org/2000/svg">
<path fill-rule="evenodd" clip-rule="evenodd" d="M30.6748 0.0592294C30.6255 0.0988863 30.5928 0.173648 30.5803 0.274756C30.562 0.423969 30.5259 0.464868 29.5852 1.40377C29.0483 1.93955 28.593 2.37795 28.5734 2.37795C28.5537 2.37795 28.4102 2.24991 28.2543 2.09345C28.0243 1.86258 27.9689 1.78637 27.9601 1.68913C27.9512 1.59012 27.9252 1.55571 27.8105 1.49139C27.6078 1.37767 27.1406 1.37825 26.9225 1.49253C26.7918 1.56105 26.7681 1.59005 26.7592 1.69275C26.7501 1.79889 26.6449 1.91607 25.8528 2.70286L24.9568 3.59286L24.8049 3.42675C24.2705 2.84225 23.6835 2.47071 22.998 2.28312C22.6928 2.1996 21.8974 2.20198 21.5822 2.28736C21.2676 2.3726 20.9137 2.54761 20.628 2.75924C20.3489 2.96601 12.6898 10.5493 12.602 10.7059C12.5605 10.7798 12.5439 10.8932 12.5437 11.1033C12.5434 11.3787 12.5508 11.4086 12.6609 11.5791C12.8344 11.8479 13.1138 11.9612 13.3652 11.8648C13.4094 11.8478 14.5697 10.7133 15.9438 9.34373C17.8084 7.48507 18.8161 6.51178 19.9166 5.50639C21.3576 4.19003 21.5879 4.00019 21.8824 3.8856C22.511 3.64104 23.3159 3.96502 23.6483 4.59639L23.7509 4.79112L23.0691 5.47253C22.6942 5.84734 18.0749 10.4835 12.8041 15.7751C6.31832 22.2865 3.1898 25.4044 3.12484 25.4217C2.99039 25.4575 2.85937 25.5986 2.81971 25.7503C2.80121 25.8211 2.15923 27.4801 1.39306 29.4371L0 32.9953V33.2916C0 33.5714 0.00458015 33.5896 0.0820263 33.6189C0.167349 33.6511 0.208189 33.719 0.208189 33.8284C0.208189 33.9523 0.339903 34 0.681714 34H1.00097L4.61527 32.6022C8.36561 31.1518 8.55097 31.0712 8.63858 30.8509C8.65506 30.8096 13.9564 25.4764 20.4194 18.9994C31.1107 8.28482 32.1817 7.22143 32.2969 7.20574C32.4005 7.19164 32.4378 7.16343 32.502 7.05056C32.5673 6.93563 32.5804 6.86087 32.5804 6.60227C32.5804 6.34343 32.5673 6.26901 32.5018 6.15397C32.4356 6.03769 32.4017 6.01311 32.2855 5.99738C32.1561 5.97986 31.61 5.65278 31.61 5.59278C31.61 5.57926 32.051 5.12972 32.59 4.59377C33.4632 3.72552 33.582 3.61938 33.6805 3.61938C33.8962 3.61938 34.0213 3.34689 33.997 2.92997C33.9769 2.58544 33.8964 2.43426 33.7249 2.41909C33.6194 2.40978 33.4864 2.29081 32.6076 1.41929C31.729 0.548044 31.61 0.417279 31.61 0.323068C31.61 0.125819 31.3699 0.00260633 30.9806 5.44927e-05C30.8107 -0.001049 30.7304 0.0144689 30.6748 0.0592294ZM31.5928 2.41257L32.182 2.99894L31.3756 3.80046L30.5691 4.60198L29.9707 4.0073L29.3724 3.41265L30.1699 2.61941C30.6086 2.18315 30.9756 1.8262 30.9855 1.8262C30.9954 1.8262 31.2687 2.09008 31.5928 2.41257ZM29.5368 7.83081C26.1586 11.1769 7.87186 29.1722 7.84965 29.1722C7.83563 29.1722 7.05985 28.4125 6.12567 27.4839L4.42717 25.7956L6.61159 23.6443C7.81301 22.4611 12.9728 17.3785 18.0777 12.3497L27.3595 3.20647L29.0684 4.90427L30.7773 6.60206L29.5368 7.83081ZM6.60052 30.0037C6.55274 30.0473 1.86967 31.9729 1.8526 31.9559C1.84323 31.9466 2.26745 30.9091 2.79538 29.6504C3.32328 28.3917 3.76985 27.3238 3.78772 27.2774C3.81849 27.1976 3.89524 27.2676 5.223 28.5869C5.99452 29.3535 6.6144 29.9911 6.60052 30.0037Z" fill="black"/>
</svg>
